<svg width="24" height="24" viewBox="0 0 24 24" xmlns="http://www.w3.org/2000/svg"><path d="M14.2064 3.62907H17.6054C18.3378 3.62907 18.9387 2.98747 18.9387 2.20551C18.9387 1.42356 18.3378 0.781952 17.6054 0.781952H14.2064C13.474 0.781952 12.873 1.42356 12.873 2.20551C12.873 2.91729 13.474 3.62907 14.2064 3.62907Z" fill="white"></path><path d="M17.6711 20.9323H14.272C13.5397 20.9323 12.9387 21.5739 12.9387 22.3559C12.9387 23.1379 13.5397 23.7795 14.272 23.7795H17.6711C18.4035 23.7795 19.0044 23.1379 19.0044 22.3559C19.0044 21.5739 18.4035 20.9323 17.6711 20.9323Z" fill="white"></path><path d="M12.873 7.33832C12.873 8.26063 13.5397 8.97241 14.4036 8.97241H20.6007C21.4646 8.97241 22.1312 8.26063 22.1312 7.33832C22.1312 6.41602 21.4646 5.70424 20.6007 5.70424H14.4036C13.5397 5.69421 12.873 6.40599 12.873 7.33832Z" fill="white"></path><path d="M20.6107 15.8095H14.4136C13.5497 15.8095 12.8831 16.5213 12.8831 17.4436C12.8831 18.3659 13.5497 19.0777 14.4136 19.0777H20.6107C21.4746 19.0777 22.1412 18.3659 22.1412 17.4436C22.1412 16.5213 21.4088 15.8095 20.6107 15.8095Z" fill="white"></path><path d="M22.4693 10.7469H14.4036C13.5397 10.7469 12.873 11.4586 12.873 12.3809C12.873 13.3032 13.5397 14.015 14.4036 14.015H22.4693C23.3331 14.015 23.9998 13.3032 23.9998 12.3809C24.0092 11.4586 23.3425 10.7469 22.4693 10.7469Z" fill="white"></path><path d="M10.0657 0C9.00466 0 8.13142 0.922306 8.13142 2.06516V10.5363C8.06569 10.8972 7.7934 11.1779 7.46476 11.1779C7.061 11.1779 6.79809 10.817 6.79809 10.4662V3.76942C6.79809 2.84712 6.0657 2.06516 5.20186 2.06516C4.33801 2.06516 3.60562 2.84712 3.60562 3.76942V8.82205C3.60562 9.10276 3.34271 9.39348 3.07041 9.39348C2.73238 9.39348 2.5352 9.11278 2.5352 8.82205V7.61905C2.5352 6.83709 1.93426 6.26566 1.2676 6.26566C0.600937 6.26566 0 6.90727 0 7.61905V16.381C0 17.1629 0.600937 17.7343 1.2676 17.7343C1.93426 17.7343 2.5352 17.0927 2.5352 16.381V14.5263C2.5352 14.1654 2.79811 13.9549 3.07041 13.9549C3.34271 13.9549 3.60562 14.1654 3.60562 14.5263V20.2206C3.60562 21.1429 4.33801 21.9248 5.20186 21.9248C6.0657 21.9248 6.79809 21.1429 6.79809 20.2206V17.0927C6.79809 16.6617 7.13612 16.381 7.46476 16.381C7.7934 16.381 8.06569 16.6617 8.13142 17.0226V21.9348C8.13142 23.0777 8.99527 24 10.0657 24C11.1361 24 12 23.0777 12 21.9348V2.06516C12 0.922306 11.1361 0 10.0657 0Z" fill="white"></path></svg>